<?xml version="1.0" encoding="UTF-8" standalone="no"?>
<!-- Created with Inkscape (http://www.inkscape.org/) -->

<svg
   xmlns:dc="http://purl.org/dc/elements/1.1/"
   xmlns:cc="http://creativecommons.org/ns#"
   xmlns:rdf="http://www.w3.org/1999/02/22-rdf-syntax-ns#"
   xmlns:svg="http://www.w3.org/2000/svg"
   xmlns="http://www.w3.org/2000/svg"
   xmlns:sodipodi="http://sodipodi.sourceforge.net/DTD/sodipodi-0.dtd"
   xmlns:inkscape="http://www.inkscape.org/namespaces/inkscape"
   version="1.1"
   id="svg4801"
   width="256.76373"
   height="75.199997"
   viewBox="0 0 256.76373 75.199997"
   sodipodi:docname="mask-color-plain.svg"
   inkscape:version="0.92.2 5c3e80d, 2017-08-06"
   inkscape:label="Mask1">
  <metadata
     id="metadata4807">
    <rdf:RDF>
      <cc:Work
         rdf:about="">
        <dc:format>image/svg+xml</dc:format>
        <dc:type
           rdf:resource="http://purl.org/dc/dcmitype/StillImage" />
        <dc:title></dc:title>
      </cc:Work>
    </rdf:RDF>
  </metadata>
  <defs
     id="defs4805" />
  <sodipodi:namedview
     pagecolor="#ffffff"
     bordercolor="#666666"
     borderopacity="1"
     objecttolerance="10"
     gridtolerance="10"
     guidetolerance="10"
     inkscape:pageopacity="0"
     inkscape:pageshadow="2"
     inkscape:window-width="1680"
     inkscape:window-height="933"
     id="namedview4803"
     showgrid="false"
     inkscape:zoom="30"
     inkscape:cx="115.4276"
     inkscape:cy="30.615127"
     inkscape:window-x="0"
     inkscape:window-y="1"
     inkscape:window-maximized="1"
     inkscape:current-layer="svg4801"
     showguides="false"
     inkscape:guide-bbox="true"
     fit-margin-top="0"
     fit-margin-left="0"
     fit-margin-right="0"
     fit-margin-bottom="0">
    <sodipodi:guide
       position="364.59896,38.766668"
       orientation="0,1"
       id="guide4846"
       inkscape:locked="false" />
  </sodipodi:namedview>
  <g
     inkscape:groupmode="layer"
     id="layer2"
     inkscape:label="Purple"
     style="display:inline"
     sodipodi:insensitive="true">
    <path
       style="display:inline;fill:#901e78;fill-opacity:1;fill-rule:evenodd;stroke:#000000;stroke-width:0.30000001;stroke-linecap:butt;stroke-linejoin:miter;stroke-miterlimit:4;stroke-dasharray:none;stroke-opacity:1"
       d="m 90,34.466664 c 4.598245,0.414143 9.364895,2.612892 14.36667,3.5 0.83394,0.08919 1.61731,0.1531 2.1,0.06667 l 5.23333,-1.600001 -3.5,-6.033332 -0.38421,-1.505263 0.55087,-4.794737 c 0.43459,-2.169164 1.2942,-4.958563 2.2772,-6.957895 0.68801,-1.677996 1.34539,-3.291353 2.3807,-5.229825 l 0.61755,0.161367 -0.97544,5.792983 c -0.24714,1.5 -0.39728,2.966666 -0.46667,4.466666 l 0.0607,2.361564 0.12846,1.669055 0.6231,1.881662 0.28772,3.054386 2.51579,2.291227 3.57368,-3.549122 2.2579,-3.836842 c 1.1037,-0.799808 2.23575,-1.567888 3.42807,-1.747369 1.92528,-0.655379 3.99405,-0.95276 6.18596,-1.252631 2.19316,-0.07093 4.20098,0.04346 6.0386,0.32807 l 2.67619,0.4 -0.0952,0.514286 c -1.90874,0.03104 -4.29779,-0.05781 -5.76666,0.209524 -2.48268,0.480721 -4.26386,0.955899 -5.4,1.847619 -1.08902,0.716835 -1.47779,1.133564 -1.97143,1.595238 l 0.38571,3.442857 1.26667,3.328571 c 1.30901,1.073421 3.07555,2.489995 3.40476,2.828572 1.09831,1.233333 2.06834,2.466667 2.9,3.7 1.31296,1.770366 2.57589,4.04107 3.8,6.7 1.13421,2.163932 1.00331,5.949654 1.1,7.766667 l -0.63333,0.133333 c -0.48579,-1.632218 -0.90687,-2.997098 -2.16667,-5.833333 -1.08697,-1.765521 -2.22417,-2.978541 -3.4,-3.766667 -0.56154,-0.390086 -1.01736,-0.759028 -2,-1.233333 l -4.4,-2.266667 -4.1,0.2 -1.3,7.5 -2.73333,4.466667 c -1.5089,1.784416 -3.18345,3.071888 -4.86667,4.333333 -1.97235,1.19147 -3.89379,2.459319 -6.03333,3.4 l -0.63334,-0.5 c 1.32223,-1.123249 2.64445,-2.287872 3.96667,-3.5 1.14574,-0.965696 2.10981,-2.06764 2.9,-3.3 0.5972,-1.3 1.34986,-2.6 1.53333,-3.9 l -0.0333,-3.3 -0.6,-2.9 -2.4,0.7 -3.8,-1 -5.46667,-2.1 -4.899997,-2.366667 -4.4,-2.766666 -4.197564,-2.605402 z"
       id="path4806"
       inkscape:connector-curvature="0"
       sodipodi:nodetypes="cccccccccccccccccccccccccccccccccccccccccccccccccccccccc" />
  </g>
  <g
     inkscape:groupmode="layer"
     id="layer1"
     inkscape:label="Blue"
     style="display:inline"
     sodipodi:insensitive="true">
    <path
       style="display:inline;fill:#28166f;fill-opacity:1;fill-rule:evenodd;stroke:#000000;stroke-width:0.30000001;stroke-linecap:butt;stroke-linejoin:miter;stroke-miterlimit:4;stroke-dasharray:none;stroke-opacity:1"
       d="m 102.33333,30.73333 c -1.51685,-3.138697 -2.917565,-6.393542 -4.766663,-9.2 -1.22808,-1.675968 -2.585562,-3.442187 -3.9,-4.6 L 94.2,16.366664 c 2.49961,0.761696 4.412705,2.403165 6.4,3.933333 1.73545,1.477248 3.14724,3.035412 4.53333,4.6 1.16569,1.281153 2.16732,2.507625 3.06667,3.7 l 2.7,2.133334 2.33333,-4.166667 c 1.03145,-1.948212 2.26856,-3.618434 3.56667,-5.033334 2.35975,-2.472844 4.92937,-4.737683 7.46666,-6.766666 1.94082,-1.443161 3.71907,-2.683589 5.40001,-4.3 L 130.5,9.6333302 l 0.8,0.4666668 c -0.52408,1.477777 -1.4204,2.722222 -2.2,4 -0.90198,1.177778 -1.78692,2.422223 -2.86667,3.6 -2.02312,2.268815 -3.60458,4.43374 -4.53333,6.8 -0.68163,1.347776 -0.42683,1.76383 0.13333,2.166667 C 122.04774,27.656878 123,28.03333 124,29.23333 l 3.16667,-0.8 3.19877,0.673198 4.16032,1.282724 4.51026,1.97063 4.06926,2.432392 2.89261,2.110817 2.56878,1.930239 -0.32525,0.407086 -2.7768,-1.498968 -2.98047,-1.308119 c -3.08832,-1.391677 -6.61857,-1.932199 -9.58415,-1.666667 -2.06721,0.147156 -3.88783,1.811524 -4.8,2.866666 2.05005,2.203911 2.5625,4.897122 2.92668,7.443448 0.19282,1.38723 0.18809,2.976911 0.27332,4.323219 -0.17642,2.859711 -0.33214,5.726323 -0.76667,8.5 l -0.76963,4.200017 c -0.75457,2.644293 -1.6758,4.02729 -2.43037,5.633316 l -0.6,-0.1 c 0.24317,-2.747541 0.50523,-5.498694 0.4,-8.333333 -0.24247,-1.778436 -0.38223,-3.391109 -1.06666,-5.166667 -0.71892,-2.257838 -1.46609,-3.402599 -3.11708,-5.10637 L 120.7,48.299995 l -3.76667,2.233333 c -3.47356,1.099797 -7.2853,1.832862 -10.36666,2.466667 -3.77639,0.733332 -10.244136,0.543612 -13.76667,0.6 l -0.2,-0.533333 3.097864,-0.908616 c 3.206288,-0.538396 6.864056,-1.732199 9.368806,-3.191384 1.80235,-1.066667 3.57365,-2.133334 5.2,-3.2 L 112.2,44.199995 c -4.87692,-3.523007 -7.33759,-8.201794 -9.86667,-13.466665 z"
       id="path4803"
       inkscape:connector-curvature="0"
       sodipodi:nodetypes="cccccccccccccccccccccccccccccccccccccccccccccccccc" />
  </g>
  <g
     inkscape:groupmode="layer"
     id="layer3"
     inkscape:label="bells"
     style="display:inline"
     sodipodi:insensitive="true">
    <path
       style="display:inline;opacity:1;fill:#e7f764;fill-opacity:1;fill-rule:nonzero;stroke:#000000;stroke-width:0.30000001;stroke-miterlimit:4;stroke-dasharray:none;stroke-dashoffset:0;stroke-opacity:1;paint-order:markers stroke fill"
       d="m 150.17847,40.697231 c -0.29612,0.32427 -1.19624,0.280584 -1.62172,-0.212916 -0.42548,-0.4935 -0.23507,-1.289139 0.15364,-1.504082 0.41734,-0.230773 1.02658,-0.09358 1.37932,0.28304 0.4461,0.476274 0.3849,1.109686 0.0888,1.433958 z"
       id="path4833"
       inkscape:connector-curvature="0"
       sodipodi:nodetypes="sssss" />
    <path
       style="display:inline;fill:#000007;fill-opacity:1;fill-rule:evenodd;stroke:none;stroke-width:0.1;stroke-linecap:butt;stroke-linejoin:miter;stroke-miterlimit:4;stroke-dasharray:none;stroke-opacity:1"
       d="m 148.76,39.259997 0.22,0.42 0.44,0.1 -0.14,-0.42 z"
       id="path4783"
       inkscape:connector-curvature="0"
       sodipodi:nodetypes="ccccc" />
    <path
       sodipodi:nodetypes="sssss"
       inkscape:connector-curvature="0"
       id="path4785"
       d="m 142.39481,24.833563 c -0.17653,0.369764 -1.11555,0.623309 -1.74425,0.343317 -0.62871,-0.279989 -0.74469,-1.014226 -0.43058,-1.321425 0.33725,-0.329823 1.01488,-0.410425 1.52339,-0.205793 0.64309,0.25877 0.82801,0.814129 0.65148,1.183888 z"
       style="display:inline;opacity:1;fill:#e7f764;fill-opacity:1;fill-rule:nonzero;stroke:#000000;stroke-width:0.29883391;stroke-miterlimit:4;stroke-dasharray:none;stroke-dashoffset:0;stroke-opacity:1;paint-order:markers stroke fill" />
    <path
       sodipodi:nodetypes="ccccc"
       inkscape:connector-curvature="0"
       id="path4787"
       d="m 140.61153,23.901165 0.34904,0.320886 0.4479,-0.05465 -0.27375,-0.347934 z"
       style="fill:#000007;fill-opacity:1;fill-rule:evenodd;stroke:none;stroke-width:0.1;stroke-linecap:butt;stroke-linejoin:miter;stroke-miterlimit:4;stroke-dasharray:none;stroke-opacity:1" />
    <path
       style="display:inline;opacity:1;fill:#e7f764;fill-opacity:1;fill-rule:nonzero;stroke:#000000;stroke-width:0.29979527;stroke-miterlimit:4;stroke-dasharray:none;stroke-dashoffset:0;stroke-opacity:1;paint-order:markers stroke fill"
       d="m 132.40274,9.7643308 c -0.30692,0.3124382 -1.23985,0.2703462 -1.68084,-0.2051473 -0.44099,-0.4754936 -0.24364,-1.2421019 0.15924,-1.4492023 0.43255,-0.2223527 1.10271,-0.1702993 1.46832,0.192579 0.46236,0.458896 0.36021,1.1493303 0.0533,1.4617706 z"
       id="path4789"
       inkscape:connector-curvature="0"
       sodipodi:nodetypes="cssssc" />
    <path
       style="fill:#000007;fill-opacity:1;fill-rule:evenodd;stroke:none;stroke-width:0.1;stroke-linecap:butt;stroke-linejoin:miter;stroke-miterlimit:4;stroke-dasharray:none;stroke-opacity:1"
       d="m 131.47968,8.3828253 -0.24357,0.4067883 0.14421,0.4275551 0.2853,-0.3385356 z"
       id="path4791"
       inkscape:connector-curvature="0"
       sodipodi:nodetypes="ccccc" />
    <path
       sodipodi:nodetypes="sssss"
       inkscape:connector-curvature="0"
       id="path4793"
       d="m 114.59094,10.06628 c 0.31125,0.309781 0.22892,1.207192 -0.28241,1.611072 -0.51132,0.40388 -1.29805,0.179455 -1.49609,-0.218133 -0.21262,-0.426872 -0.0494,-1.029653 0.34206,-1.365883 0.495,-0.4252208 1.1252,-0.3368577 1.43644,-0.0271 z"
       style="display:inline;opacity:1;fill:#e7f764;fill-opacity:1;fill-rule:nonzero;stroke:#000000;stroke-width:0.30000001;stroke-miterlimit:4;stroke-dasharray:none;stroke-dashoffset:0;stroke-opacity:1;paint-order:markers stroke fill" />
    <path
       sodipodi:nodetypes="ccccc"
       inkscape:connector-curvature="0"
       id="path4795"
       d="m 114.01439,10.270768 -0.43554,0.187357 -0.13324,0.431101 0.42945,-0.10759 z"
       style="fill:#000007;fill-opacity:1;fill-rule:evenodd;stroke:none;stroke-width:0.1;stroke-linecap:butt;stroke-linejoin:miter;stroke-miterlimit:4;stroke-dasharray:none;stroke-opacity:1" />
    <path
       style="display:inline;opacity:1;fill:#e7f764;fill-opacity:1;fill-rule:nonzero;stroke:#000000;stroke-width:0.3048507;stroke-miterlimit:4;stroke-dasharray:none;stroke-dashoffset:0;stroke-opacity:1;paint-order:markers stroke fill"
       d="m 93.833523,16.593413 c -0.332058,0.335319 -1.373505,0.359171 -1.695268,-0.210319 -0.324612,-0.574533 -0.205731,-1.113412 0.200608,-1.325732 0.436267,-0.227958 1.033138,-0.25244 1.401875,0.119587 0.466331,0.470464 0.402355,1.096149 0.09282,1.416464 z"
       id="path4797"
       inkscape:connector-curvature="0"
       sodipodi:nodetypes="cssssc" />
    <path
       style="fill:#000007;fill-opacity:1;fill-rule:evenodd;stroke:none;stroke-width:0.1;stroke-linecap:butt;stroke-linejoin:miter;stroke-miterlimit:4;stroke-dasharray:none;stroke-opacity:1"
       d="m 92.388157,15.336096 0.22,0.42 0.44,0.1 -0.14,-0.42 z"
       id="path4799"
       inkscape:connector-curvature="0"
       sodipodi:nodetypes="ccccc" />
    <path
       sodipodi:nodetypes="cssssc"
       inkscape:connector-curvature="0"
       id="path4801"
       d="m 89.623733,35.365127 c -0.302349,0.309019 -1.317681,0.340748 -1.65583,-0.202903 -0.30822,-0.495533 -0.09971,-1.256571 0.156871,-1.433345 0.394879,-0.272052 1.108173,-0.24918 1.468332,0.109729 0.455483,0.453874 0.332996,1.217497 0.03067,1.526519 z"
       style="display:inline;opacity:1;fill:#e7f764;fill-opacity:1;fill-rule:nonzero;stroke:#000000;stroke-width:0.29592454;stroke-miterlimit:4;stroke-dasharray:none;stroke-dashoffset:0;stroke-opacity:1;paint-order:markers stroke fill" />
    <path
       sodipodi:nodetypes="ccccc"
       inkscape:connector-curvature="0"
       id="path4804"
       d="m 88.400826,33.936205 0.174519,0.440844 0.427014,0.145807 -0.09497,-0.432414 z"
       style="display:inline;fill:#000007;fill-opacity:1;fill-rule:evenodd;stroke:none;stroke-width:0.1;stroke-linecap:butt;stroke-linejoin:miter;stroke-miterlimit:4;stroke-dasharray:none;stroke-opacity:1" />
    <path
       style="display:inline;opacity:1;fill:#e7f764;fill-opacity:1;fill-rule:nonzero;stroke:#000000;stroke-width:0.30000001;stroke-miterlimit:4;stroke-dasharray:none;stroke-dashoffset:0;stroke-opacity:1;paint-order:markers stroke fill"
       d="m 92.406627,54.49333 c -0.29612,0.32427 -1.21624,0.360584 -1.64172,-0.132916 -0.42548,-0.4935 -0.21507,-1.349139 0.17364,-1.564082 0.41734,-0.230773 1.02658,-0.23358 1.37932,0.14304 0.4461,0.476274 0.3849,1.229686 0.0888,1.553958 z"
       id="path4807"
       inkscape:connector-curvature="0"
       sodipodi:nodetypes="cssssc" />
    <path
       style="display:inline;fill:#000007;fill-opacity:1;fill-rule:evenodd;stroke:none;stroke-width:0.1;stroke-linecap:butt;stroke-linejoin:miter;stroke-miterlimit:4;stroke-dasharray:none;stroke-opacity:1"
       d="m 91.158361,53.459614 0.4248,0.210582 0.414792,-0.177618 -0.360067,-0.257589 z"
       id="path4809"
       inkscape:connector-curvature="0"
       sodipodi:nodetypes="ccccc"
       inkscape:transform-center-x="0.08"
       inkscape:transform-center-y="0.14" />
    <path
       sodipodi:nodetypes="cssssc"
       inkscape:connector-curvature="0"
       id="path4811"
       d="m 107.87552,63.213223 c 0.068,0.433836 -0.56874,1.04912 -1.21991,1.072748 -0.65116,0.02363 -1.11318,-0.562341 -1.03798,-1.000109 0.0808,-0.47001 0.56866,-0.859796 1.08313,-0.899708 0.65061,-0.05049 1.10676,0.393217 1.17479,0.827038 z"
       style="display:inline;opacity:1;fill:#e7f764;fill-opacity:1;fill-rule:nonzero;stroke:#000000;stroke-width:0.30000001;stroke-miterlimit:4;stroke-dasharray:none;stroke-dashoffset:0;stroke-opacity:1;paint-order:markers stroke fill" />
    <path
       sodipodi:nodetypes="ccccc"
       inkscape:connector-curvature="0"
       id="path4813"
       d="m 106.38816,62.776096 0.22,0.42 0.44,0.1 -0.14,-0.42 z"
       style="fill:#000007;fill-opacity:1;fill-rule:evenodd;stroke:none;stroke-width:0.1;stroke-linecap:butt;stroke-linejoin:miter;stroke-miterlimit:4;stroke-dasharray:none;stroke-opacity:1" />
    <path
       style="display:inline;opacity:1;fill:#e7f764;fill-opacity:1;fill-rule:nonzero;stroke:#000000;stroke-width:0.28762886;stroke-miterlimit:4;stroke-dasharray:none;stroke-dashoffset:0;stroke-opacity:1;paint-order:markers stroke fill"
       d="m 127.64432,69.588387 c -0.28428,0.310495 -1.206,0.268665 -1.61447,-0.203872 -0.40846,-0.472537 -0.16806,-1.234378 0.2051,-1.440191 0.40065,-0.22097 1.08152,-0.166206 1.42016,0.194415 0.42825,0.456043 0.2735,1.13915 -0.0108,1.449648 z"
       id="path4815"
       inkscape:connector-curvature="0"
       sodipodi:nodetypes="cssssc" />
    <path
       style="fill:#000007;fill-opacity:1;fill-rule:evenodd;stroke:none;stroke-width:0.1;stroke-linecap:butt;stroke-linejoin:miter;stroke-miterlimit:4;stroke-dasharray:none;stroke-opacity:1"
       d="m 126.31881,68.430752 0.42025,0.219507 0.41845,-0.168819 -0.35454,-0.265136 z"
       id="path4817"
       inkscape:connector-curvature="0"
       sodipodi:nodetypes="ccccc" />
    <path
       sodipodi:nodetypes="sssss"
       inkscape:connector-curvature="0"
       id="path4819"
       d="m 139.96587,58.561204 c -0.4278,0.189653 -1.2633,-0.297641 -1.44467,-1.016639 -0.18139,-0.718997 0.35883,-1.447704 0.82524,-1.478893 0.50073,-0.03349 1.01762,0.407558 1.18268,0.970038 0.20876,0.711325 -0.13544,1.335849 -0.56321,1.525514 z"
       style="display:inline;opacity:1;fill:#e7f764;fill-opacity:1;fill-rule:nonzero;stroke:#000000;stroke-width:0.32914177;stroke-miterlimit:4;stroke-dasharray:none;stroke-dashoffset:0;stroke-opacity:1;paint-order:markers stroke fill" />
    <path
       sodipodi:nodetypes="ccccc"
       inkscape:connector-curvature="0"
       id="path4821"
       d="m 139.37569,56.396579 -0.17033,0.442479 0.21527,0.396555 0.22313,-0.382378 z"
       style="fill:#000007;fill-opacity:1;fill-rule:evenodd;stroke:none;stroke-width:0.1;stroke-linecap:butt;stroke-linejoin:miter;stroke-miterlimit:4;stroke-dasharray:none;stroke-opacity:1" />
  </g>
  <g
     inkscape:groupmode="layer"
     id="layer4"
     inkscape:label="Mask"
     style="display:inline"
     sodipodi:insensitive="true">
    <path
       sodipodi:nodetypes="ccscccsccscccsc"
       style="display:inline;fill:#ef9a48;fill-opacity:1;fill-rule:evenodd;stroke:#000002;stroke-width:0.30000001;stroke-linecap:butt;stroke-linejoin:miter;stroke-miterlimit:4;stroke-dasharray:none;stroke-opacity:1"
       d="m 128.78516,37.101897 c 0.6075,-4.237642 0.0842,-6.66613 -1.89606,-8.799247 -1.17776,-1.268661 -2.34928,-1.811432 -3.90981,-1.811432 -1.71988,0 -3.12271,0.87501 -4.13517,2.579284 -0.43917,0.739257 -1.17035,1.979808 -1.72263,2.610113 -0.89694,1.02366 -1.66721,1.008163 -2.36217,0.691518 -0.42791,-0.19497 -0.93949,-0.988964 -1.79334,-1.685996 -2.47871,-2.023462 -4.27559,-2.079324 -5.2461,-0.33433 -0.57339,1.174324 -0.69881,1.833794 -0.22149,3.84 0.53485,1.660102 1.08881,3.236641 1.55513,4.933483 0.31991,1.164133 0.49271,2.353129 1.01308,3.791569 1.07665,2.116659 2.45261,3.656413 3.78743,5.634359 1.11031,1.380523 2.30551,2.953153 3.65683,4.040137 3.9121,3.392825 7.53353,-1.815494 9.52069,-7.259841 1.20395,-3.298517 1.52951,-6.759625 1.75361,-8.229617 z"
       id="path4788"
       inkscape:connector-curvature="0" />
    <path
       style="display:inline;fill:none;fill-rule:evenodd;stroke:#000000;stroke-width:0.40000001;stroke-linecap:round;stroke-linejoin:miter;stroke-miterlimit:4;stroke-dasharray:none;stroke-opacity:1"
       d="m 108.335,35.054997 c 0.0417,-1.023332 0.0833,-2.046668 0.125,-3.07 0.19988,-0.746851 0.71379,-1.964323 1.68391,-1.629203 2.18795,0.939959 2.918,3.967851 4.80432,4.684563 0.88694,0.137838 1.53132,-0.660675 2.02949,-1.279654 1.04083,-1.906563 2.12576,-3.846894 3.67328,-5.182428 1.20169,-0.73449 2.79201,-1.015382 4.06781,-0.296012 1.20273,0.585938 1.9728,1.73172 2.95619,2.592734"
       id="path4829"
       inkscape:connector-curvature="0"
       sodipodi:nodetypes="cccccccc" />
    <path
       style="display:inline;fill:none;fill-rule:evenodd;stroke:#000000;stroke-width:0.40000001;stroke-linecap:round;stroke-linejoin:miter;stroke-miterlimit:4;stroke-dasharray:none;stroke-opacity:1"
       d="m 111.24,33.859997 c 0.98428,0.853753 2.02136,1.701272 3.23592,2.199342 0.71759,0.207478 1.5058,0.195354 2.20408,-0.07934 1.04276,-0.989689 1.74477,-2.263825 2.31655,-3.567019 0.70344,-1.490391 2.10469,-3.139809 3.69197,-3.037726 2.45343,0.305905 3.65772,1.677689 4.91148,3.284745"
       id="path4831"
       inkscape:connector-curvature="0"
       sodipodi:nodetypes="cccccc" />
    <path
       style="display:inline;fill:#000000;fill-opacity:1;fill-rule:evenodd;stroke:none;stroke-width:0;stroke-linecap:butt;stroke-linejoin:miter;stroke-miterlimit:4;stroke-dasharray:none;stroke-opacity:1"
       d="m 118.76936,38.83976 -0.009,-1.059763 c 0.10117,-0.379766 0.39603,-0.772793 0.76,-1.1 1.34437,-0.995672 2.98221,-1.088661 4.5,-1.12 h 1.16 c -1.05346,1.54521 -4.86772,3.975963 -6.25147,3.62923 -0.10983,-0.02752 -0.10332,-0.245343 -0.15917,-0.349467 z"
       id="path4834"
       inkscape:connector-curvature="0"
       sodipodi:nodetypes="cccccscc" />
    <path
       style="display:inline;fill:none;fill-rule:evenodd;stroke:#000000;stroke-width:0.40000001;stroke-linecap:round;stroke-linejoin:miter;stroke-miterlimit:4;stroke-dasharray:none;stroke-opacity:1"
       d="m 118.16,35.979997 c 1.47933,-1.808009 2.38979,-4.454345 4.78,-4.92 1.07145,-0.117182 1.49045,0.744329 2.06,1.38"
       id="path4798"
       inkscape:connector-curvature="0"
       sodipodi:nodetypes="ccc" />
    <path
       style="fill:none;fill-rule:evenodd;stroke:#000000;stroke-width:0.40000001;stroke-linecap:round;stroke-linejoin:miter;stroke-miterlimit:4;stroke-dasharray:none;stroke-opacity:1"
       d="m 118.52,36.939997 c 1.34612,-2.035013 3.4024,-1.868557 5.24,-2.38"
       id="path4800"
       inkscape:connector-curvature="0"
       sodipodi:nodetypes="cc" />
    <path
       style="fill:none;fill-rule:evenodd;stroke:#000000;stroke-width:0.40000001;stroke-linecap:round;stroke-linejoin:miter;stroke-miterlimit:4;stroke-dasharray:none;stroke-opacity:1"
       d="m 109.32,36.433329 c 1.8218,-0.07508 3.66491,0.27607 5.54,1.266668"
       id="path4802"
       inkscape:connector-curvature="0"
       sodipodi:nodetypes="cc" />
    <path
       style="display:inline;fill:none;fill-rule:evenodd;stroke:#000000;stroke-width:0.40000001;stroke-linecap:round;stroke-linejoin:miter;stroke-miterlimit:4;stroke-dasharray:none;stroke-opacity:1"
       d="m 120.26,43.499997 0.04,0.72 c -0.0264,0.413859 -0.24369,0.445961 -0.48,0.44 l -0.88,0.08 c -0.46638,0.186955 -0.79119,0.515477 -1.1,0.86 -0.37348,0.299351 -0.76854,0.505227 -1.3,0.12 l 0.04,-5.34 -0.02,-1.34 c -0.26417,-0.687023 -0.50898,-1.376812 -1.5,-1.96 -1.49299,-0.489915 -2.83065,-1.07868 -3.74,-1.94"
       id="path4805"
       inkscape:connector-curvature="0"
       sodipodi:nodetypes="cccccccccc" />
    <path
       style="fill:none;fill-rule:evenodd;stroke:#000000;stroke-width:0.40000001;stroke-linecap:round;stroke-linejoin:miter;stroke-miterlimit:4;stroke-dasharray:none;stroke-opacity:1"
       d="m 117.84,38.499997 0.02,4.9"
       id="path4808"
       inkscape:connector-curvature="0" />
    <path
       style="fill:none;fill-rule:evenodd;stroke:#000000;stroke-width:0.40000001;stroke-linecap:round;stroke-linejoin:miter;stroke-miterlimit:4;stroke-dasharray:none;stroke-opacity:1"
       d="m 121.82,42.659997 c 1.49506,-0.467889 3.41045,-2.046665 3.5,1.2"
       id="path4810"
       inkscape:connector-curvature="0"
       sodipodi:nodetypes="cc" />
    <path
       style="fill:none;fill-rule:evenodd;stroke:#000000;stroke-width:0.40000001;stroke-linecap:round;stroke-linejoin:miter;stroke-miterlimit:4;stroke-dasharray:none;stroke-opacity:1"
       d="m 110.7,43.259997 c 1.88657,1.740503 2.61864,0.08541 3.66,-0.66"
       id="path4812"
       inkscape:connector-curvature="0"
       sodipodi:nodetypes="cc" />
    <path
       style="fill:none;fill-rule:evenodd;stroke:#000000;stroke-width:0.40000001;stroke-linecap:round;stroke-linejoin:miter;stroke-miterlimit:4;stroke-dasharray:none;stroke-opacity:1"
       d="m 126.36,41.159997 c 0.16568,2.465159 -0.31501,5.191948 -2.38,8.56"
       id="path4814"
       inkscape:connector-curvature="0"
       sodipodi:nodetypes="cc" />
    <path
       style="display:inline;fill:none;fill-rule:evenodd;stroke:#000000;stroke-width:0.40000001;stroke-linecap:round;stroke-linejoin:miter;stroke-miterlimit:4;stroke-dasharray:none;stroke-opacity:1"
       d="m 119,52.579997 c -0.28958,-1.305269 1.14321,-1.031883 0.96,0"
       id="path4816"
       inkscape:connector-curvature="0"
       sodipodi:nodetypes="cc" />
    <path
       style="display:inline;fill:none;fill-opacity:1;fill-rule:evenodd;stroke:#000000;stroke-width:0.2;stroke-linecap:round;stroke-linejoin:miter;stroke-miterlimit:4;stroke-dasharray:none;stroke-opacity:1"
       d="m 112.78,44.619997 c 1.35576,1.004407 2.53838,2.040294 5.02,2.84 0.34157,0.383103 0.70513,0.436333 1.1,0.02 0.54095,-0.490473 1.19616,-0.638178 1.84,-0.82 1.45771,-0.780095 2.47442,-2.221707 3.64,-3.44 v 0"
       id="path4818"
       inkscape:connector-curvature="0"
       sodipodi:nodetypes="cccccc" />
    <path
       style="display:inline;fill:#000000;fill-opacity:1;fill-rule:evenodd;stroke:none;stroke-width:0;stroke-linecap:butt;stroke-linejoin:miter;stroke-miterlimit:4;stroke-dasharray:none;stroke-opacity:1"
       d="m 109.53333,37.399997 c 2.05358,-0.139683 3.96613,0.12996 5.7,0.966667 0.53882,0.206903 1.17691,1.020656 0.005,1.432663 -3.47791,1.222501 -5.19463,-1.69945 -5.70478,-2.39933 z"
       id="path4820"
       inkscape:connector-curvature="0"
       sodipodi:nodetypes="ccsc" />
    <path
       style="display:inline;fill:none;fill-opacity:1;fill-rule:evenodd;stroke:#000000;stroke-width:0.30000001;stroke-linecap:round;stroke-linejoin:round;stroke-miterlimit:4;stroke-dasharray:none;stroke-opacity:1"
       d="m 117.98,46.819997 0.02,-0.8 0.3,0.1 0.3,0.7"
       id="path4822"
       inkscape:connector-curvature="0" />
    <path
       style="display:inline;fill:#22135f;fill-opacity:1;fill-rule:evenodd;stroke:#000000;stroke-width:0.30000001;stroke-linecap:round;stroke-linejoin:round;stroke-miterlimit:4;stroke-dasharray:none;stroke-dashoffset:0;stroke-opacity:1"
       d="m 112.9,44.919997 3.5274,2.101157 c 0.85978,0.997856 1.47035,1.206507 2.0126,1.198843 1.01638,0.367679 5.00279,-4.022011 5.82,-4.7 -1.22302,1.749138 -2.95778,5.375042 -5.12,6.14 -0.55947,0.186414 -1.46283,-0.107563 -2.18758,-0.910488 -1.19464,-1.323496 -2.95036,-3.040118 -4.05242,-3.829512 z"
       id="path4824"
       inkscape:connector-curvature="0"
       sodipodi:nodetypes="cccccsc" />
    <path
       style="display:inline;fill:#d4d9d6;fill-opacity:1;fill-rule:evenodd;stroke:#000000;stroke-width:0.1;stroke-linecap:butt;stroke-linejoin:miter;stroke-miterlimit:4;stroke-dasharray:none;stroke-opacity:1"
       d="m 116.77778,47.23333 c 0.53527,0.749807 1.28815,1.26105 2.18055,0.948611 0.67602,-0.251257 1.21547,-0.770416 1.80834,-1.348611 -0.77545,0.150617 -1.39862,0.438277 -1.87778,0.855556 -0.36893,0.379745 -0.72998,0.209724 -1.1773,-0.0676 -0.27423,-0.170016 -0.65581,-0.308146 -0.93381,-0.387954 z"
       id="path4835"
       inkscape:connector-curvature="0"
       sodipodi:nodetypes="ccccscc" />
    <path
       style="display:inline;fill:#6e175b;fill-opacity:1;fill-rule:evenodd;stroke:#000000;stroke-width:0.1;stroke-linecap:butt;stroke-linejoin:miter;stroke-miterlimit:4;stroke-dasharray:none;stroke-opacity:1"
       d="m 118.21,49.452696 c 1.01391,-0.424055 1.96542,-0.8566 2.79735,-1.405714 -0.12086,0.13797 -0.29798,0.280852 -0.41331,0.397616 -0.86735,0.878103 -1.47294,1.28589 -2.38404,1.008098 z"
       id="path4863"
       inkscape:connector-curvature="0"
       sodipodi:nodetypes="ccsc" />
  </g>
</svg>
